# xmcd
#
# Track frame offsets:
#  183
#  35820
#  57118
#  89080
#  120473
#  136448
#  161490
#  175175
#  211885
#  223400
#  237833
#  249800
#  262165
#
# Disc length: 3685 seconds
#
# Revision: 5
# Processed by: cddbd v1.5.1PL2 Copyright (c) Steve Scherf et al.
# Submitted via: Collectorz.com_Music_Collector 6.11
#
DISCID=c00e630d
DTITLE=Hannes Wader - Liedermacher
DYEAR=1900
DGENRE=Blues
TTITLE0=Der Rattenfänger
TTITLE1=Manche Stadt
TTITLE2=Wieder eine Nacht
TTITLE3=Hotel Zur Langen Dämmerung
TTITLE4=Schon so lang' (So Long)
TTITLE5=Unterwegs nach Süden
TTITLE6=Heute hier, morgen dort (Indian Summer)
TTITLE7=Kleines Testament
TTITLE8=Dat du min leefste büst
TTITLE9=Wilde Schwäne
TTITLE10=Weile an dieser Quelle
TTITLE11=Wo soll ich mich hinwenden
TTITLE12=Dem Morgenrot entgegen (Lied der Jugend)
EXTD=
EXTT0=
EXTT1=
EXTT2=
EXTT3=
EXTT4=
EXTT5=
EXTT6=
EXTT7=
EXTT8=
EXTT9=
EXTT10=
EXTT11=
EXTT12=
PLAYORDER=
